<svg width="512" height="425" xmlns="http://www.w3.org/2000/svg" viewBox="0 0 400 332"><rect width="400" height="332" fill="#1A1614"/><g transform="translate(100,8) scale(0.5)"><g fill="none" stroke="#FFFFFF"><path d="M 80,255 Q 80,100 200,100 Q 320,100 320,255" stroke-width="18" stroke-linecap="butt"/><path d="M 116,255 Q 116,138 200,138 Q 284,138 284,255" stroke-width="14" stroke-linecap="butt" opacity="0.82"/><path d="M 152,255 Q 152,176 200,176 Q 248,176 248,255" stroke-width="11" stroke-linecap="butt" opacity="0.6"/><line x1="62" y1="255" x2="338" y2="255" stroke-width="16" stroke-linecap="round"/><line x1="116" y1="255" x2="116" y2="278" stroke-width="11" stroke-linecap="round"/><line x1="200" y1="255" x2="200" y2="286" stroke-width="11" stroke-linecap="round"/><line x1="284" y1="255" x2="284" y2="278" stroke-width="11" stroke-linecap="round"/></g><circle cx="200" cy="255" r="10" fill="#FFFFFF"/><circle cx="116" cy="255" r="5.5" fill="#FFFFFF" opacity="0.45"/><circle cx="284" cy="255" r="5.5" fill="#FFFFFF" opacity="0.45"/></g><text x="200" y="250" font-family="Poppins, &quot;Trebuchet MS&quot;, Arial, sans-serif" font-size="30" font-weight="700" fill="#FFFFFF" letter-spacing="1.2" text-anchor="middle">MASUL GROUP<tspan font-family="Jost, Arial, sans-serif" font-weight="400" font-size="13" dy="-15">™</tspan></text><text x="200" y="278" font-family="Jost, Arial, sans-serif" font-size="10" font-weight="400" fill="#FFFFFF" letter-spacing="4.5" text-anchor="middle" opacity="0.55">HOLDING COMPANY</text></svg>